<svg xmlns="http://www.w3.org/2000/svg" width="682.667" height="682.667" version="1" viewBox="0 0 512 512"><path d="M44.4 86.6c-8.7 2.5-15.6 8.5-19.9 17.2-2.1 4.1-2.8 7.3-3.2 14.5-.3 5.1-.5 9.9-.4 10.7v8c-.1 3.6-.1 7.2 0 8 0 .8.1 8 0 16v63.7c.1 1 0 4.7 0 8.3-.1 3.6-.1 7.2 0 8 0 .8.1 8 0 16v63.7c.1 1 0 4.7 0 8.3-.1 3.6-.1 7.2 0 8 .1 1.2.1 14.7 0 31.5-.1 15 .6 33.3 1.3 34.1.5.7 1 2.5 1.1 4.2.1 1.7.4 2.8.6 2.6.2-.2 1.6 1.3 2.9 3.4 1.4 2 3.1 4.1 3.9 4.5.7.5 1.1 1.3.7 1.8-.3.5-.2.8.3.7 1.4-.5 7.2 3.5 6.6 4.5-.3.6-.1.7.5.3.6-.4 2.4-.1 3.9.7 1.5.7 3.6 1.2 4.7.9 1.1-.2 1.6 0 1.2.6-.3.6-.1 1.4.5 1.8.7.4.9.3.5-.4-.3-.6-.2-1.3.4-1.7.5-.3 1-.2 1 .4 0 .6 1.1.6 3 .1 1.8-.5 3.2-.5 3.6.1.4.6 1.1.6 1.9-.1 1-.8 1.6-.7 2.4.7.6 1 1.1 1.3 1.1.6 0-.9 6-1.2 24.2-1.3 13.3 0 24.4-.2 24.6-.5.3-.3 1.1 0 1.8.6.8.6 1.4.7 1.8 0 .4-.6 1.3-.8 2.1-.5.8.4 1.2 1.1.8 1.8-.5.8-.3.8.8-.1 1.5-1.2 16.9-2 18.7-.9.6.3 1.3.2 1.7-.4.4-.6 1.1-.8 1.6-.4 1.1.7 50 .6 50.7-.1.3-.3 1.1 0 1.8.6.8.6 1.4.7 1.8 0 .9-1.4 3.7-.2 2.9 1.3-.3.6-.1.6.8-.1.7-.7 3.7-1.3 6.7-1.3 4 0 5.1.3 4.6 1.3-.6.9-.5.9.7 0 1.6-1.3 12.9-2 14.7-1 .6.4 1.3.3 1.7-.2.8-1.4 3.6-.1 2.8 1.3-.3.6-.1.6.8-.1 1.8-1.8 12.3-1.8 11.3-.1-.6 1-.5 1 .7.1 1.6-1.3 28.9-2.1 30.8-.9.5.4 1.2.2 1.6-.3.8-1.4 3.6-.1 2.8 1.3-.3.6-.1.6.8-.1 1.8-1.8 12.3-1.8 11.3-.1-.6 1-.5 1 .7.1 1.6-1.3 44.9-2.1 46.8-.9.5.4 1.2.2 1.6-.3.3-.6 1.2-.8 2-.5.8.4 1.2 1.1.8 1.8-.5.8-.3.8.8-.1 1.5-1.2 17.5-2.1 18.6-1 .3.4 1.2.2 1.9-.4.7-.5 1.4-.6 1.7-.2.3.4 4.8.6 10.2.3 5.3-.3 10-.1 10.4.3.5.5 1.2.4 1.5-.2.9-1.4 3.8-.2 2.9 1.3-.3.6-.1.6.8-.1 1.8-1.8 12.3-1.8 11.3 0-.6.9-.5.9.7 0 1.6-1.3 12.9-2 14.7-1 .6.4 1.3.3 1.7-.2.8-1.4 3.6-.1 2.8 1.3-.3.6-.1.6.8-.1 1.8-1.8 12.3-1.8 11.3-.1-.6 1-.5 1 .7.1.9-.7 7.3-1.2 17.6-1.5 8.8-.1 16-.6 15.8-.9-.4-.6 6.6-3.4 7.8-3.1.4.1.7-.4.7-1.2 0-1.2 2.1-2.7 4.2-3 .3-.1 1-.5 1.5-1s.2-.6-.7-.2c-.9.5-.8.2.3-.7.9-.8 1.7-1.9 1.7-2.5 0-.5.7-1.2 1.5-1.6.8-.3 1.4-.9 1.3-1.3-.1-.4.3-1.7.9-2.8.6-1.1 1.5-3.8 1.9-6 .4-2.2 1.2-4.3 1.8-4.7.6-.5.7-.8.1-.8-.7 0-.9-47.8-.8-141.7.1-139.4.1-141.9-1.9-147.8-3.6-10.8-11.3-18.2-21.8-21-6.6-1.8-416.7-1.7-422.6.1zM16 402c-.9.6-1 1-.3 1 .6 0 1.5-.5 1.8-1 .8-1.2.4-1.2-1.5 0zM483.6 423.8c-.3.5.1.9.9.9s1.2-.4.9-.9c-.3-.4-.7-.8-.9-.8-.2 0-.6.4-.9.8zM473.5 424.9c-.3.5-.2 1.2.3 1.5.5.3.9-.1.9-.9 0-1.7-.3-1.9-1.2-.6z"/><path d="M91.3 429.5c0 .8.4 1.2.9.9.5-.3.6-1 .3-1.5-.9-1.3-1.2-1.1-1.2.6zM44.6 429.8c-.3.5.1.9.9.9s1.2-.4.9-.9c-.3-.4-.7-.8-.9-.8-.2 0-.6.4-.9.8zM101.5 430c.3.5.8 1 1.1 1 .2 0 .4-.5.4-1 0-.6-.5-1-1.1-1-.5 0-.7.4-.4 1zM109.5 430c.3.5.8 1 1.1 1 .2 0 .4-.5.4-1 0-.6-.5-1-1.1-1-.5 0-.7.4-.4 1zM149.5 430c.3.5.8 1 1.1 1 .2 0 .4-.5.4-1 0-.6-.5-1-1.1-1-.5 0-.7.4-.4 1zM157.5 430c.3.5.8 1 1.1 1 .2 0 .4-.5.4-1 0-.6-.5-1-1.1-1-.5 0-.7.4-.4 1zM261.5 430c.3.5.8 1 1.1 1 .2 0 .4-.5.4-1 0-.6-.5-1-1.1-1-.5 0-.7.4-.4 1zM269.5 430c.3.5.8 1 1.1 1 .2 0 .4-.5.4-1 0-.6-.5-1-1.1-1-.5 0-.7.4-.4 1zM309.5 430c.3.5.8 1 1.1 1 .2 0 .4-.5.4-1 0-.6-.5-1-1.1-1-.5 0-.7.4-.4 1zM317.5 430c.3.5.8 1 1.1 1 .2 0 .4-.5.4-1 0-.6-.5-1-1.1-1-.5 0-.7.4-.4 1zM325.5 430c.3.5.8 1 1.1 1 .2 0 .4-.5.4-1 0-.6-.5-1-1.1-1-.5 0-.7.4-.4 1zM333.5 430c.3.5.8 1 1.1 1 .2 0 .4-.5.4-1 0-.6-.5-1-1.1-1-.5 0-.7.4-.4 1zM373.5 430c.3.5.8 1 1.1 1 .2 0 .4-.5.4-1 0-.6-.5-1-1.1-1-.5 0-.7.4-.4 1zM381.5 430c.3.5.8 1 1.1 1 .2 0 .4-.5.4-1 0-.6-.5-1-1.1-1-.5 0-.7.4-.4 1zM465.5 430c-.3.5-.1 1 .4 1 .6 0 1.1-.5 1.1-1 0-.6-.2-1-.4-1-.3 0-.8.4-1.1 1zM187.6 432.7c-.6 1.4-.5 1.5.5.6.7-.7 1-1.5.7-1.8-.3-.3-.9.2-1.2 1.2zM193.6 431.8c-.3.5.1.9.9.9s1.2-.4.9-.9c-.3-.4-.7-.8-.9-.8-.2 0-.6.4-.9.8zM225.6 431.8c-.3.5.1.9.9.9s1.2-.4.9-.9c-.3-.4-.7-.8-.9-.8-.2 0-.6.4-.9.8zM385.6 431.8c-.3.5.1.9.9.9s1.2-.4.9-.9c-.3-.4-.7-.8-.9-.8-.2 0-.6.4-.9.8zM417.6 431.8c-.3.5.1.9.9.9s1.2-.4.9-.9c-.3-.4-.7-.8-.9-.8-.2 0-.6.4-.9.8zM303.3 434.5c0 .8.4 1.2.9.9.5-.3.6-1 .3-1.5-.9-1.3-1.2-1.1-1.2.6z"/></svg>