<?xml version="1.0" standalone="no"?>
<!DOCTYPE svg PUBLIC "-//W3C//DTD SVG 20010904//EN"
 "http://www.w3.org/TR/2001/REC-SVG-20010904/DTD/svg10.dtd">
<svg version="1.0" xmlns="http://www.w3.org/2000/svg"
 width="512.000000pt" height="512.000000pt" viewBox="0 0 512.000000 512.000000"
 preserveAspectRatio="xMidYMid meet">
<metadata>
Created by potrace 1.11, written by Peter Selinger 2001-2013
</metadata>
<g transform="translate(0.000000,512.000000) scale(0.100000,-0.100000)"
fill="#000000" stroke="none">
<path d="M434 4249 c-84 -24 -179 -123 -206 -212 -10 -33 -13 -351 -13 -1492
l0 -1450 28 -56 c32 -66 99 -132 165 -162 l47 -22 2105 0 2105 0 47 22 c66 30
133 96 165 162 l28 56 0 1460 0 1460 -26 56 c-31 66 -90 128 -151 161 l-43 23
-2110 2 c-1252 1 -2123 -2 -2141 -8z m1886 -548 c47 -12 128 -43 180 -69 80
-39 109 -60 186 -137 151 -150 205 -286 206 -515 0 -151 -17 -231 -74 -350
-83 -172 -251 -296 -483 -357 -95 -25 -116 -26 -402 -31 l-303 -4 0 -409 0
-409 -245 0 -245 0 0 1156 0 1155 548 -3 c532 -4 549 -5 632 -27z m1360 -341
l0 -200 145 0 145 0 0 -185 0 -185 -145 0 -146 0 3 -474 c3 -536 -1 -509 84
-522 38 -5 144 6 197 22 16 5 17 -9 17 -188 l0 -194 -72 -18 c-93 -23 -276
-32 -349 -17 -132 28 -236 105 -289 216 -51 109 -53 125 -57 668 l-4 507 -135
0 -134 0 0 185 0 185 135 0 135 0 0 200 0 200 235 0 235 0 0 -200z"/>
<path d="M1630 2985 l0 -336 268 3 c312 5 345 11 423 88 61 59 89 134 89 234
0 145 -58 246 -174 306 l-69 35 -268 3 -269 3 0 -336z"/>
</g>
</svg>
